<?xml version="1.0" encoding="UTF-8"?>
<!-- Generator: visioncortex VTracer 0.6.12 -->
<svg version="1.1" xmlns="http://www.w3.org/2000/svg" width="1920" height="1080">
<path d="M0 0 C633.6 0 1267.2 0 1920 0 C1920 356.4 1920 712.8 1920 1080 C1286.4 1080 652.8 1080 0 1080 C0 723.6 0 367.2 0 0 Z " fill="#3A455F" transform="translate(0,0)"/>
<path d="M0 0 C5.9 0.9 10.3 2.6 15.6 5.4 C20.6 8.1 25.2 9.6 30.9 10.4 C42.3 12.1 55.6 17.7 63 27 C75.4 45.7 77.5 71.2 73.6 92.8 C71.9 100.7 68.8 111.2 63 117 C63.7 116.7 64.3 116.3 65 116 C67 116 69 116 71 116 C70.7 117.3 70.3 118.6 70 120 C69.6 120.1 69.6 120.1 67.5 120.4 C59.9 121.8 55.7 123.6 50.3 128.9 C38.9 139.1 21.6 142.3 6.8 142.2 C3.2 142 -0.2 141.3 -3.7 140.4 C-6.2 140 -8.5 139.9 -11 140 C-12.3 140 -13.6 140 -15 140 C-15.2 139.2 -15.5 138.5 -15.8 137.7 C-17.2 134.6 -18.1 134 -20.9 132.4 C-37.3 122 -47 105.1 -55 88 C-55.3 87.3 -55.7 86.7 -56 86 C-56.1 84.3 -56.2 82.5 -56.2 80.8 C-56.7 75.1 -58.1 72.9 -62 69 C-62 68.3 -62 67.7 -62 67 C-63.3 66.3 -64.6 65.7 -66 65 C-66 64.3 -66 63.7 -66 63 C-65.1 62.8 -64.2 62.6 -63.2 62.5 C-58.9 60.5 -57.8 57.7 -56 53.6 C-55.3 52.1 -54.6 50.6 -53.9 49.2 C-53.8 48.8 -53.8 48.8 -52.9 47 C-49.3 39.3 -45.2 32.6 -39.6 26.1 C-38 24 -38 24 -37 21 C-37.6 19.7 -38.3 18.3 -39 17 C-39 16 -39 15 -39 14 C-32.5 14.6 -32.5 14.6 -29.7 16.7 C-27 18 -27 18 -23.6 17.1 C-22.4 16.5 -21.1 16 -19.9 15.4 C-18.6 14.8 -17.2 14.2 -15.9 13.6 C-15.2 13.4 -14.6 13.1 -13.9 12.8 C-9.7 11.1 -5.4 10 -1 9 C-0.7 6 -0.3 3.1 0 0 Z " fill="#8D9CB3" transform="translate(1657,590)"/>
<path d="M0 0 C0.7 0.3 1.3 0.7 2 1 C3.8 1.3 5.7 1.6 7.5 1.9 C22.3 4.3 33.3 9.3 44 20 C44.6 20.6 45.2 21.1 45.8 21.7 C54.3 30.8 58.4 42.8 58.3 55.1 C58.3 55.5 58.3 55.5 58.3 57.7 C58.2 64.8 57.1 71.2 55 78 C54.7 79.1 54.4 80.3 54.1 81.4 C49.5 96.5 37.4 109.1 24 117 C21.4 118.3 18.7 119.7 16.1 120.9 C14 122 14 122 13 123 C-6.6 124.5 -24.4 120.1 -39.8 107.2 C-50 98.2 -58.9 84.5 -60.8 70.8 C-60.9 69.2 -61 67.6 -61 66 C-61.1 64.8 -61.1 63.6 -61.2 62.3 C-61.9 46.6 -56 34.8 -46 23 C-36.8 13.1 -24.8 5.4 -12 1 C-11.2 0.6 -10.3 0.3 -9.5 -0.1 C-6 -1.3 -3.5 -0.7 0 0 Z " fill="#716779" transform="translate(480,418)"/>
<path d="M0 0 C25.2 -0.1 50.3 0.1 75.5 0.4 C86.4 0.5 97.3 0.6 108.2 0.7 C109.4 0.7 110.6 0.7 111.8 0.8 C142.5 1.1 173.2 1.3 203.9 1.5 C206.1 1.5 208.4 1.5 210.6 1.5 C231.3 1.7 252 1.8 272.7 2 C299.5 2.1 326.2 2.3 353 2.5 C353.8 2.5 354.5 2.5 355.3 2.5 C397.8 2.8 440.2 3.1 482.7 3.5 C486.2 3.5 489.7 3.6 493.3 3.6 C531.5 3.9 569.8 4.4 608 5 C608.1 11.2 608.1 11.2 608 13 C606.2 14.8 603.7 14.1 601.3 14.1 C600.4 14.1 599.6 14.1 598.7 14.1 C598.3 14.1 598.3 14.1 596 14.1 C593 14.1 590 14.1 587 14.1 C584.8 14.1 582.6 14.1 580.4 14.1 C572.9 14.1 565.5 14 558 14 C556.7 14 555.4 14 554.1 14 C533.8 13.9 513.6 13.8 493.4 13.7 C488.1 13.6 482.8 13.6 477.6 13.6 C429.4 13.3 381.3 12.9 333.1 12.5 C328 12.5 322.8 12.4 317.6 12.4 C313.7 12.4 309.8 12.3 305.9 12.3 C294.1 12.2 282.3 12.1 270.6 12 C267.9 11.9 265.3 11.9 262.7 11.9 C175.1 11.1 87.6 10.7 0 11 C0 7.4 0 3.7 0 0 Z " fill="#BAC8DB" transform="translate(646,419)"/>
<path d="M0 0 C9.3 0.6 18.5 1.8 27.7 3.2 C30.3 3.6 32.9 4 35.5 4.4 C41.1 5.2 46.7 6 52.2 6.8 C59.5 7.9 66.8 9 74.1 10 C75 10.1 75.9 10.3 76.8 10.4 C90.1 12.4 103.5 14.1 116.8 15.7 C123.1 16.5 129.4 17.4 135.6 18.5 C138.9 19.2 142.1 19.6 145.4 20.1 C146.1 20.2 146.8 20.3 147.5 20.4 C149.6 20.7 151.8 21 154 21.2 C156.4 21.6 158.7 21.9 161.1 22.2 C162.7 22.5 164.4 22.7 166.1 22.9 C172.6 23.8 179.1 24.7 185.6 25.6 C187.5 25.9 189.5 26.2 191.4 26.4 C194.2 26.8 197.1 27.2 199.9 27.6 C202.6 28 205.2 28.4 207.9 28.8 C208.7 28.9 209.4 29 210.2 29.1 C215.8 29.9 221.4 30.5 227 31 C227 42.8 227 54.6 227.1 66.4 C227.1 71.9 227.1 77.4 227.1 82.9 C227.1 104.5 227.1 126.2 226.7 147.8 C226.6 149.6 226.6 151.4 226.6 153.2 C226.5 155.7 226.5 158.1 226.4 160.6 C226.4 161.3 226.4 162.1 226.4 162.8 C226.2 167.8 226.2 167.8 224 170 C223.9 156.2 224 142.3 224.2 128.5 C224.2 127.6 224.2 126.7 224.3 125.8 C224.3 118.4 224.4 111.1 224.5 103.7 C224.6 97.3 224.7 90.9 224.8 84.5 C224.8 83.7 224.8 82.8 224.8 81.9 C225 68.9 225.1 56 225 43 C223.9 42.9 222.8 42.8 221.6 42.7 C209 41.4 196.5 39.8 183.9 38 C181.8 37.7 179.7 37.4 177.6 37.1 C173.2 36.5 168.8 35.9 164.4 35.3 C153 33.7 141.7 32.1 130.3 30.5 C129.2 30.3 128.1 30.2 126.9 30 C103.5 26.8 80 23.6 56.5 20.6 C43.7 18.9 30.9 17.2 18.1 15.4 C16.4 15.1 14.7 14.9 13.1 14.7 C9 14.1 5 13.6 1 13 C1 13.7 1 14.4 1 15 C1.2 38.2 0.7 61.4 0.1 84.6 C0 88.5 -0 92.4 -0.1 96.3 C-0.5 113.5 -0.9 130.8 -1.6 148 C-2.1 162.1 -2.1 176.2 -2.1 190.4 C-2.1 192.8 -2.1 195.2 -2 197.6 C-2 203.4 -2 209.2 -2 215 C-3 215 -4 215 -5 215 C-5.2 186.7 -4.7 158.4 -4.1 130 C-4 125.7 -4 121.3 -3.9 117 C-3.4 95.6 -3 74.2 -2.5 52.7 C-2.4 51.9 -2.4 51 -2.4 50.1 C-1.5 12.5 -1.5 12.5 0 0 Z " fill="#5DAAD0" transform="translate(952,71)"/>
<path d="M0 0 C0.7 0.3 1.3 0.7 2 1 C3.8 1.3 5.7 1.6 7.5 1.9 C22.3 4.3 33.3 9.3 44 20 C44.6 20.6 45.2 21.1 45.8 21.7 C54.3 30.8 58.4 42.8 58.3 55.1 C58.3 55.5 58.3 55.5 58.3 57.7 C58.2 64.8 57.1 71.2 55 78 C54.7 79.1 54.4 80.3 54.1 81.4 C49.5 96.5 37.4 109.1 24 117 C21.4 118.3 18.7 119.7 16.1 120.9 C14 122 14 122 13 123 C-6.6 124.5 -24.4 120.1 -39.8 107.2 C-50 98.2 -58.9 84.5 -60.8 70.8 C-60.9 69.2 -61 67.6 -61 66 C-61.1 64.8 -61.1 63.6 -61.2 62.3 C-61.9 46.6 -56 34.8 -46 23 C-36.8 13.1 -24.8 5.4 -12 1 C-11.2 0.6 -10.3 0.3 -9.5 -0.1 C-6 -1.3 -3.5 -0.7 0 0 Z M-49.2 33.3 C-54.8 41.8 -56.4 49.7 -56.5 59.7 C-56.5 60.6 -56.5 61.4 -56.5 62.3 C-56.2 78.2 -48 93 -36.9 104.1 C-24.8 114.8 -8 119.6 7.9 119.4 C11 119 11 119 14.1 116.8 C14.7 115.8 15.4 114.9 16 114 C16.7 113.4 17.4 112.7 18.2 112.1 C20.4 109.6 21 107.2 22 104 C22.7 103.7 23.3 103.3 24 103 C24 102.3 24 101.7 24 101 C24.5 100.8 25.1 100.5 25.6 100.3 C28.8 98.5 31.6 96.3 34.5 94 C40.5 89.3 40.5 89.3 43.2 87.9 C48.2 85.4 50.8 79 52.4 74 C53.4 70.7 53.8 67.4 54 64 C54.1 62.8 54.2 61.6 54.2 60.4 C54.9 45.8 50.6 34.2 40.8 23 C31.4 12.8 19.1 6.4 5.2 5.5 C3.2 5.4 1.2 5.4 -0.9 5.4 C-1.8 5.4 -2.8 5.4 -3.8 5.3 C-22.1 5.7 -38.6 19.2 -49.2 33.3 Z " fill="#E9E0E5" transform="translate(480,418)"/>
<path d="M0 0 C0.4 4.3 0.3 6.5 -1.9 10.3 C-4.2 12.7 -5.9 13.5 -9.1 14.1 C-9.5 14.2 -9.5 14.2 -11.5 14.6 C-15.6 15.3 -19.7 15.9 -23.8 16.4 C-25.6 16.7 -27.5 17 -29.3 17.2 C-32.2 17.6 -35.1 18 -37.9 18.4 C-40.7 18.8 -43.5 19.2 -46.3 19.6 C-47.2 19.7 -48 19.8 -48.9 19.9 C-54.1 20.6 -59.1 21.4 -64 23 C-64.2 23.5 -64.2 23.5 -65 26 C-65.9 26 -66.8 25.9 -67.8 25.9 C-70.9 26 -72.3 26.5 -75 28 C-75.7 28 -76.3 28 -77 28 C-77 27.3 -77 26.7 -77 26 C-78 26.7 -79 27.3 -80 28 C-82.7 28 -85.3 27.4 -88 27 C-88 27.7 -88 28.3 -88 29 C-91 28.7 -93.9 28.3 -97 28 C-97 27.7 -97 27.3 -97 27 C-98.1 27 -99.1 27 -100.2 27.1 C-101.6 27.1 -103 27.1 -104.4 27.1 C-104.7 27.1 -104.7 27.1 -106.5 27.2 C-108.3 27.2 -110.2 27.1 -112 27 C-114 25 -114 25 -114.2 22.8 C-114.2 22 -114.1 21.2 -114.1 20.4 C-114.1 19.6 -114.1 18.7 -114.1 17.9 C-114 17.3 -114 16.6 -114 16 C-109 13.6 -104.3 13.7 -98.9 13.5 C-97.9 13.4 -97 13.2 -96 13 C-94.9 11 -94.9 11 -94 9 C-91.9 8.4 -91.9 8.4 -89.4 8.2 C-89 8.2 -89 8.2 -87 8 C-85 8 -85 8 -84 9 C-81.7 9.4 -79.3 9.7 -77 10 C-76.7 9 -76.3 8 -76 7 C-72.4 6.3 -68.7 5.7 -65 5 C-65 5.3 -65 5.7 -65 6 C-56.7 5.6 -48.6 4.6 -40.4 3.3 C-39.3 3.1 -38.3 3 -37.2 2.8 C-32.8 2.1 -28.5 1.5 -24.1 0.8 C-20.9 0.3 -17.7 -0.2 -14.4 -0.7 C-13.9 -0.8 -13.9 -0.8 -11.4 -1.2 C-11 -1.3 -11 -1.3 -8.7 -1.6 C-7.8 -1.7 -7 -1.9 -6.2 -2 C-3.6 -2 -2.2 -1.3 0 0 Z " fill="#796B8C" transform="translate(606,972)"/>
<path d="M0 0 C0.3 0.7 0.3 0.7 2 4 C-4.6 7 -4.6 7 -8 7 C-6.8 9.7 -5.6 12.5 -4.4 15.2 C-4.1 16 -3.7 16.8 -3.4 17.7 C-0.6 23.8 2.5 29.6 5.9 35.4 C7 38 7 38 6.2 40.4 C5.8 40.9 5.4 41.4 5 42 C4 42 3 42 2 42 C-3 35.7 -6.1 27.8 -9.4 20.5 C-9.8 19.5 -10.3 18.5 -10.7 17.5 C-14 10.3 -14 10.3 -14 8 C-59 6.4 -59 6.4 -68.8 15.1 C-70.7 17 -72.4 18.9 -74.2 21 C-76.2 23.2 -78.3 24.9 -80.6 26.8 C-91.1 35.3 -91.1 35.3 -93.2 41.6 C-93.6 51.4 -89.7 62.7 -83.6 70.4 C-74.7 79.3 -62 86.3 -50.6 91.6 C-48 93 -48 93 -46.6 96.2 C-46.4 97.1 -46.2 98 -46 99 C-47 99.3 -48 99.7 -49 100 C-49.2 100.5 -49.2 100.5 -50 103 C-50.7 103 -51.3 103 -52 103 C-52.1 102.6 -52.1 102.6 -52.5 100.8 C-54.1 97.9 -54.8 97.3 -57.5 95.6 C-58.3 95.2 -59 94.8 -59.7 94.3 C-61.9 93 -64.1 91.8 -66.3 90.5 C-84.4 80 -94.2 70.7 -99.9 50.1 C-100.1 49.3 -100.3 48.5 -100.6 47.6 C-102.6 39.9 -102.6 39.9 -101 36 C-99.3 34.1 -99.3 34.1 -97.1 32.2 C-96.7 31.9 -96.7 31.9 -94.6 30.2 C-94.2 29.8 -94.2 29.8 -92 28 C-91.2 27.3 -90.4 26.6 -89.5 25.9 C-87.2 24.1 -85 22.2 -82.7 20.4 C-80.7 18.8 -78.8 17.2 -76.9 15.6 C-75.5 14.5 -74.1 13.3 -72.6 12.1 C-71.9 11.6 -71.3 11 -70.6 10.4 C-70.2 10.2 -70.2 10.2 -68.6 8.8 C-68 8.3 -67.5 7.9 -66.9 7.4 C-66.2 6.9 -65.6 6.5 -65 6 C-64.3 5.5 -63.7 4.9 -63 4.4 C-58.4 2.3 -54 2.6 -49 2.6 C-48.5 2.6 -48.5 2.6 -45.8 2.5 C-42.4 2.5 -39 2.5 -35.6 2.4 C-32.2 2.4 -28.8 2.4 -25.4 2.3 C-23.2 2.3 -21.1 2.3 -19 2.3 C-12.4 2.2 -6.4 -0.4 0 0 Z " fill="#84DDF3" transform="translate(296,335)"/>
<path d="M0 0 C0 1.6 0 3.3 0.1 4.9 C0.1 5.9 0.1 6.8 0.1 7.7 C0 10 0 10 -1 11 C-3.7 11.4 -6.3 11.7 -9 12 C-9.8 12.1 -10.7 12.2 -11.5 12.3 C-14.3 12.6 -17.1 12.9 -19.9 13.2 C-21.8 13.5 -23.7 13.7 -25.7 13.9 C-30.8 14.5 -35.9 15.1 -41 15.6 C-49.1 16.6 -57.3 17.5 -65.4 18.4 C-68.3 18.7 -71.1 19.1 -74 19.4 C-75.7 19.6 -77.5 19.8 -79.2 20 C-80 20.1 -80.8 20.2 -81.6 20.3 C-85.1 20.6 -88.5 21.1 -92 21.6 C-92.5 21.7 -92.5 21.7 -95 22 C-96 21 -96 21 -96.1 18.7 C-96.1 17.8 -96.1 16.9 -96.1 15.9 C-96.1 15 -96 14.1 -96 13.2 C-96 12.4 -96 11.7 -96 11 C-92.8 9.4 -89.4 9.4 -85.9 9 C-85.5 8.9 -85.5 8.9 -83.4 8.7 C-80.6 8.4 -77.8 8.1 -75.1 7.8 C-72.2 7.4 -69.2 7.1 -66.3 6.8 C-64.3 6.5 -62.3 6.3 -60.3 6.1 C-53.1 5.2 -46 4.4 -38.9 3.6 C-35.9 3.2 -33 2.9 -30.1 2.5 C-28.3 2.3 -26.4 2.1 -24.5 1.9 C-21.9 1.5 -19.3 1.2 -16.7 0.9 C-15.9 0.8 -15.2 0.7 -14.4 0.6 C-9.5 0.1 -4.9 -0.1 0 0 Z " fill="#BEDEF1" transform="translate(587,638)"/>
<path d="M0 0 C0 3.3 0 6.6 0 10 C-0.4 10 -0.4 10 -2.2 10 C-9 10.1 -15.8 10.2 -22.6 10.3 C-26.1 10.4 -29.6 10.4 -33.1 10.5 C-60 10.9 -60 10.9 -73.4 11.8 C-79.4 12.1 -85.5 12.1 -91.6 12.1 C-92.8 12.1 -94 12.1 -95.2 12 C-98.2 12 -101.1 12 -104 12 C-104 10.5 -104 9 -104.1 7.6 C-104.1 6.7 -104.1 5.9 -104.1 5.1 C-104 3 -104 3 -103 2 C-101.4 1.8 -99.8 1.8 -98.2 1.7 C-97.1 1.7 -96.1 1.6 -95 1.6 C-93.9 1.5 -92.7 1.5 -91.5 1.5 C-90.9 1.4 -90.9 1.4 -87.9 1.3 C-84.7 1.2 -81.4 1.1 -78.2 1 C-76.2 0.9 -74.2 0.9 -72.2 0.8 C-48.1 -0 -24.1 -0.2 0 0 Z " fill="#AED0E3" transform="translate(1589,155)"/>
<path d="M0 0 C0 3.6 0 7.3 0 11 C-2.2 11.2 -2.2 11.2 -13 12.2 C-13.4 12.3 -13.4 12.3 -15.1 12.4 C-16.5 12.6 -17.8 12.7 -19.2 12.8 C-19.9 12.9 -20.6 13 -21.4 13 C-21.7 13.1 -21.7 13.1 -23.6 13.2 C-23.9 13.3 -23.9 13.3 -25.8 13.5 C-26.5 13.5 -27.2 13.6 -28 13.7 C-28.7 13.7 -29.4 13.8 -30.2 13.9 C-32 14 -32 14 -40.9 14.9 C-41.6 15 -42.3 15 -43 15.1 C-43.7 15.2 -43.7 15.2 -47.2 15.5 C-47.9 15.6 -48.5 15.6 -49.2 15.7 C-52.1 16 -52.1 16 -66.5 17.3 C-67 17.4 -67 17.4 -69.7 17.6 C-71.5 17.8 -71.5 17.8 -80.6 18.7 C-81.1 18.7 -81.1 18.7 -84 19 C-85.3 15.2 -85.1 12.1 -85 8 C-84.4 7.9 -84.4 7.9 -81.7 7.6 C-80.1 7.5 -78.6 7.3 -77.1 7.1 C-76.2 7 -75.4 6.9 -74.6 6.8 C-69.5 6.3 -64.4 5.7 -59.3 5.1 C-17 0 -17 0 0 0 Z " fill="#D8BAA8" transform="translate(417,656)"/>
<path d="M0 0 C1 0.3 2 0.7 3 1 C2.7 1.3 2.3 1.7 2 2 C1.8 4.3 1.8 6.6 1.7 8.8 C1.7 9.6 1.7 10.3 1.6 11.1 C1.6 13.6 1.5 16.1 1.5 18.6 C1.5 19 1.5 19 1.4 21.3 C0.8 47.6 0.7 73.9 0.5 100.3 C0.4 107.4 0.4 114.4 0.3 121.5 C0.2 136 0.1 150.5 0 165 C0.9 165 1.7 165 2.6 165 C29.1 164.7 55.5 165.5 82 166.6 C95.5 167.1 109 167.6 122.5 168 C125 168.1 127.5 168.2 130 168.3 C134.9 168.5 139.9 168.6 144.9 168.8 C149.9 169 154.9 169.2 159.9 169.3 C190.3 170.4 220.6 171.3 251 172 C251 171.3 251 170.6 251 169.9 C251.1 153.1 251.2 136.2 251.3 119.3 C251.4 111.2 251.4 103 251.5 94.9 C251.5 87.8 251.6 80.7 251.6 73.6 C251.7 69.8 251.7 66 251.7 62.3 C251.8 47.2 251.9 32.1 253 17 C253.3 17 253.7 17 254 17 C254.1 50.9 253.9 84.9 253.5 118.8 C253.5 125.1 253.4 131.3 253.4 137.6 C253.2 149.7 253.1 161.9 253 174 C250.2 174.9 248.7 175.1 245.8 175 C245 175 244.1 175 243.3 175 C242.4 175 241.5 174.9 240.5 174.9 C239.6 174.9 238.7 174.9 237.7 174.8 C235.7 174.8 233.7 174.8 231.7 174.7 C228.7 174.6 225.7 174.6 222.6 174.5 C213.9 174.3 205.2 174 196.5 173.3 C187.9 172.6 179.2 172.4 170.6 172.1 C169.5 172 168.4 172 167.2 171.9 C147.9 171.2 128.5 170.6 109.2 169.9 C84.5 169.2 59.8 168.3 35.1 167.4 C34.2 167.3 33.3 167.3 32.3 167.3 C20.9 166.8 9.4 166.4 -2 166 C-2.1 129.7 -2.2 93.4 -1.6 57.1 C-1.5 55.9 -1.5 54.7 -1.5 53.4 C-1.2 35.6 -0.7 17.8 0 0 Z " fill="#89A0C4" transform="translate(1314,623)"/>
<path d="M0 0 C0.3 0 0.7 0 1 0 C2.4 34 3.7 68.1 4.9 102.1 C5 107.3 5.2 112.6 5.4 117.8 C6.3 143.4 7.2 169.1 7.2 194.7 C7.2 195.6 7.2 196.5 7.2 197.4 C7.2 199.9 7.2 202.4 7.2 204.8 C7.2 205.2 7.2 205.2 7.2 207 C7.1 211.9 7.1 211.9 6 213 C4.3 213.2 2.6 213.3 0.8 213.4 C-0.3 213.4 -1.4 213.5 -2.6 213.5 C-3.8 213.6 -5.1 213.7 -6.4 213.7 C-7 213.8 -7 213.8 -10.3 213.9 C-13.1 214.1 -16 214.2 -18.8 214.3 C-23.4 214.6 -27.9 214.8 -32.4 215 C-41.3 215.5 -50.1 215.9 -58.9 216.3 C-70.1 216.9 -81.2 217.4 -92.4 218 C-96.1 218.2 -99.9 218.3 -103.6 218.5 C-120.2 219.3 -136.7 220.3 -153.2 221.6 C-161.2 222.2 -169.2 222.5 -177.2 222.9 C-190.3 223.5 -203.4 224.1 -216.4 225 C-229.2 225.9 -242 226.5 -254.8 227.1 C-255.7 227.2 -256.6 227.2 -257.6 227.3 C-276.7 228.2 -276.7 228.2 -286 228 C-282.9 226.2 -280.4 225.7 -276.9 225.4 C-275.8 225.4 -274.8 225.3 -273.7 225.2 C-273.1 225.2 -273.1 225.2 -270.1 225 C-269.5 225 -269.5 225 -266.3 224.8 C-253.7 224 -241.2 223.5 -228.6 222.9 C-211.8 222.2 -195 221.4 -178.2 220.4 C-177 220.4 -175.9 220.3 -174.7 220.2 C-171.4 220.1 -168.1 219.9 -164.9 219.7 C-164.4 219.7 -164.4 219.7 -161.9 219.5 C-157.9 219.3 -153.9 219 -149.9 218.5 C-143.3 217.7 -136.5 217.5 -129.8 217.2 C-127.2 217.1 -124.6 217 -122 216.9 C-118.3 216.7 -114.6 216.6 -110.8 216.4 C-101.2 216 -91.5 215.5 -81.9 215.1 C-80.9 215 -80 215 -79 214.9 C-60.9 214.1 -42.9 213.1 -24.9 211.9 C-14.6 211.2 -4.3 210.9 6 211 C5.9 210 5.9 208.9 5.8 207.9 C5.2 197.8 4.7 187.7 4.4 177.6 C4.4 176 4.3 174.5 4.3 172.9 C4.1 168.7 4 164.6 3.9 160.4 C3.8 157.8 3.7 155.1 3.6 152.5 C3.4 143.3 3.1 134 2.8 124.8 C2.5 116.3 2.3 107.7 2 99.2 C1.8 91.8 1.5 84.5 1.3 77.1 C1.2 72.7 1 68.3 0.9 63.9 C0.2 42.6 -0.2 21.3 0 0 Z " fill="#9CACC7" transform="translate(1815,366)"/>
<path d="M0 0 C13.8 2.6 27.4 7.5 36.4 18.7 C41.3 25.9 43.4 34.1 45.4 42.4 C45.6 43.2 45.7 44 45.9 44.8 C47.2 50.6 47 54.7 44 60 C45 60 46 60 47 60 C46.8 71 46.4 80.8 42 91 C41 88 41 88 41.4 85.9 C42.3 81.7 42.3 77.5 42.3 73.2 C42.3 72.4 42.4 71.5 42.4 70.7 C42.5 64.2 40.9 59.8 38 54 C37.4 52.5 36.8 51 36.2 49.5 C31.5 37.7 26 26.8 18.2 16.7 C17 15 17 15 17 13 C16.3 12.8 15.5 12.5 14.8 12.2 C11.7 10.9 9.8 9.3 7.4 7.1 C6.6 6.4 5.9 5.7 5.1 5 C3.4 3.3 1.7 1.7 0 0 Z " fill="#1E2641" transform="translate(1681,603)"/>
<path d="M0 0 C6.7 0.1 10.6 3.1 15.8 7.1 C16.6 7.6 17.4 8.2 18.2 8.8 C23.3 12.6 28.2 16.5 33.1 20.5 C36.9 23.4 36.9 23.4 39 24 C41.8 22.7 41.8 22.7 44.9 20.5 C51.3 16.3 57.9 13 65 10 C65.9 9.6 66.8 9.2 67.7 8.8 C70.3 7.9 72.3 7.8 75 8 C74 10 74 10 71.5 10.9 C70.3 11.3 69.2 11.6 68.1 12 C61.7 14.1 56 16.9 50.2 20.2 C49.4 20.6 48.6 21.1 47.8 21.5 C42.1 24.7 42.1 24.7 41 27 C41.4 27.5 41.9 28 42.4 28.5 C46.2 32.8 49.7 37.2 53 42 C53 41.2 53 40.3 53 39.4 C53.4 32.1 53.9 26.5 59 21 C64.5 16.7 68.9 15.8 75.7 15.4 C76.4 15.4 77.1 15.4 77.8 15.3 C79.5 15.2 81.3 15.1 83 15 C83.2 15.8 83.2 15.8 84 20 C83.2 19.8 82.4 19.7 81.5 19.5 C74.9 18.6 69.2 18.5 63 21 C60.7 23.4 60.7 23.4 59 26 C58.6 26.5 58.3 27.1 57.9 27.6 C55.2 34.5 55.6 44.6 58.4 51.4 C59.5 53.3 60.8 55.2 62 57 C64.3 60.4 65.9 63.9 67.4 67.6 C67.7 68.2 67.7 68.2 68.9 71.2 C70 74 70 74 70 76 C73.6 74.7 77.3 73.4 81 72 C81.3 72.7 81.7 73.3 82 74 C80.7 74.5 79.5 75 78.2 75.5 C77.5 75.8 76.8 76.1 76 76.3 C74 77 74 77 71 77 C73.6 83.3 76.3 89.5 79 96 C80.3 95.3 81.6 94.7 83 94 C84 94 85 94 86 94 C86.3 96 86.7 98 87 100 C84.9 100.8 84.9 100.8 82 101 C74.1 96.8 71.7 87 69 79 C67.3 79.3 65.7 79.6 64 79.9 C63.1 80 62.1 80.2 61.2 80.4 C58 81 58 81 54.5 82 C48.5 83.6 42.5 83.3 36.4 83.4 C16.1 84 16.1 84 8 87 C7.8 87.3 7.8 87.3 7 89 C5.4 88.3 3.7 87.7 2 87 C2 86 2 85 2 84 C2.9 83.9 3.9 83.7 4.9 83.6 C5.5 83.5 5.5 83.5 8.6 83.1 C9.2 83 9.2 83 12.4 82.5 C14.5 82.2 16.7 81.9 18.9 81.5 C21.9 81 24.7 80.8 27.7 80.8 C28.8 80.8 29.9 80.7 31 80.7 C32.1 80.7 33.3 80.7 34.4 80.6 C43.3 80.4 51.6 79.7 60.1 77.6 C62.9 77 65.2 76.9 68 77 C61.1 59.2 51.8 43.2 39 29 C33.5 29.3 30.3 32.7 26.3 36.1 C24.9 37.2 23.5 38.4 22.1 39.6 C21.4 40.2 20.7 40.8 20 41.4 C17.3 43.6 14.7 45.7 12 47.8 C11.2 48.4 10.4 49.1 9.6 49.7 C9.1 50.1 8.6 50.6 8 51 C7.3 50.3 6.7 49.7 6 49 C8.6 46.9 11.2 44.7 13.8 42.6 C15.9 40.9 17.9 39.2 20 37.5 C32.7 27 32.7 27 36 27 C30.7 21.5 24.8 16.9 18.7 12.3 C17.2 11.2 15.8 10.1 14.4 8.9 C10.6 6.1 8.2 4.6 3.4 5.1 C2.3 5.4 1.2 5.7 0 6 C-0.4 4.3 -0.7 2.7 -1 1 C-0.7 0.7 -0.3 0.3 0 0 Z " fill="#C0D1E4" transform="translate(414,672)"/>
<path d="M0 0 C4 0 7.9 0 12 0 C12 0.7 12 1.3 12 2 C12.7 2.2 13.3 2.4 14 2.6 C28.4 9.2 42 26 49 40 C45.8 38.5 43.2 36.7 40.4 34.5 C18.2 18.3 18.2 18.3 6.4 19.6 C5.6 19.7 4.8 19.9 4 20 C3.6 20 3.6 20 1.3 20.2 C-3.8 20.5 -7.5 21.3 -12 24 C-11.7 23 -11.3 22 -11 21 C-10.3 21 -9.7 21 -9 21 C-8.7 20.3 -8.4 19.6 -8.2 18.8 C-7.1 16.1 -5.8 13.6 -4.5 11.1 C-2.7 7.4 -1.1 3.9 0 0 Z " fill="#27324E" transform="translate(1660,603)"/>
<path d="M0 0 C5 3.6 8 7.2 10.8 12.8 C16.8 23.7 27.4 29.5 39 33 C42.3 33.8 45.6 34.5 49 35 C49 35.3 49 35.7 49 36 C47.3 36 45.7 36 44 36 C44 36.5 44 36.5 43.8 39.2 C43.7 40.6 43.6 41.9 43.6 43.3 C43.5 44 43.5 44.7 43.4 45.4 C43.3 48.5 43 51.1 42 54 C34.1 51.3 27.9 46.4 22.1 40.6 C21.5 40 20.9 39.3 20.3 38.7 C11.5 29.6 -0.2 16.7 -0.3 3.3 C-0.2 2.2 -0.1 1.1 0 0 Z " fill="#21263D" transform="translate(1606,670)"/>
<path d="M0 0 C3.6 1.3 6.3 3.3 8.9 6.1 C10.8 11.1 10.9 16.1 9.3 21.1 C7.7 24.4 5.9 26 2.8 28 C-2.4 29.4 -7 29.6 -11.8 27 C-15.1 24.4 -17.1 22 -18 18 C-18.5 13.3 -18.5 11 -16.4 6.8 C-11.7 1.4 -7.3 -1.4 0 0 Z " fill="#5F6472" transform="translate(1882,1020)"/>
<path d="M0 0 C1.6 3 2.6 5.9 3.6 9.1 C6 15.9 10.1 20.8 15 26 C15.6 26.7 16.2 27.3 16.9 28 C26.3 37.3 40.5 41.3 53.5 41.2 C54.4 41.2 55.2 41.2 56.1 41.2 C56.9 41.2 57.8 41.2 58.6 41.2 C63.8 41.1 68.8 40.7 74 40 C69.8 49.1 69.8 49.1 66 51 C48.5 52.3 30.7 46.9 17.3 35.3 C9.4 27.2 0.3 14.6 -0.2 3.1 C-0.1 2.6 -0.1 2.6 0 0 Z " fill="#493645" transform="translate(425,486)"/>
<path d="M0 0 C2.7 2.1 4.5 3.9 6.2 6.8 C6.2 9.5 6.2 12.1 6.2 14.8 C-0.7 14.5 -7.6 14.2 -14.8 13.8 C-11.8 20.8 -11.8 20.8 -9.8 21.8 C-4.8 22.2 -2.6 21.9 1.2 18.8 C3.5 19.1 3.5 19.1 5.2 19.8 C4 22.7 2.7 24.8 0.2 26.8 C-3.8 28.2 -7.6 28.7 -11.7 27.1 C-16.5 24.4 -19 22 -20.8 16.8 C-21.3 10.7 -20.1 7.8 -16.8 2.8 C-12.5 -2.2 -5.8 -2.5 0 0 Z " fill="#7E838F" transform="translate(1851.75,1021.1875)"/>
<path d="M0 0 C0.3 0 0.7 0 1 0 C1 0.7 1.1 1.4 1.1 2.1 C2 19 2.8 35.9 3.7 52.8 C4.1 61 4.5 69.2 4.9 77.3 C5.3 84.5 5.7 91.6 6 98.7 C6.2 102.5 6.4 106.3 6.6 110 C6.8 113.6 7 117.2 7.1 120.7 C7.2 122.6 7.3 124.5 7.4 126.4 C7.8 133.9 8.3 141.3 8.8 148.8 C9 152.5 9.2 156.2 9.3 159.9 C9.3 161.2 9.4 162.5 9.4 163.8 C9.4 165.8 9.5 167.8 9.6 169.8 C10.1 192.1 10.1 192.1 12 194 C12.2 196.5 12.2 198.9 12.2 201.3 C12.3 202 12.3 202.7 12.3 203.4 C12.3 208 12 209.1 9 213 C9 207.1 9 201.1 9 195 C7.7 195 6.4 195 5 195 C5 194.3 5 193.7 5 193 C6 193 7 193 8 193 C7.8 192.1 7.7 191.1 7.5 190.2 C6.8 185.3 6.7 180.4 6.5 175.4 C6.4 174.4 6.4 173.3 6.3 172.3 C6.2 170 6.1 167.8 6 165.5 C5.9 161.9 5.7 158.3 5.6 154.7 C5.2 147 4.9 139.3 4.6 131.6 C4.1 121.5 3.7 111.4 3.3 101.4 C3.2 100.2 3.1 98.9 3.1 97.7 C2.4 81.3 1.5 64.9 0.4 48.5 C-0.6 32.8 -1.7 16.7 -1 1 C-0.7 0.7 -0.3 0.3 0 0 Z " fill="#8497BF" transform="translate(313,646)"/>
<path d="M0 0 C0.7 0 1.3 0 2 0 C1.6 16.7 1.3 33.4 0.9 50.1 C0.7 57.8 0.5 65.6 0.4 73.3 C0.2 80.1 0.1 86.9 -0.1 93.7 C-0.2 97.2 -0.3 100.8 -0.3 104.4 C-0.7 120.2 -1.1 135.9 -1.7 151.7 C-2.1 164.6 -2.1 177.5 -2.1 190.4 C-2.1 192.8 -2.1 195.2 -2 197.6 C-2 203.4 -2 209.2 -2 215 C-3 215 -4 215 -5 215 C-5.2 186.7 -4.7 158.4 -4.1 130 C-4 125.7 -4 121.3 -3.9 117 C-3.4 95.6 -3 74.2 -2.5 52.7 C-2.4 51.9 -2.4 51 -2.4 50.1 C-1.5 12.5 -1.5 12.5 0 0 Z " fill="#A8BADA" transform="translate(952,71)"/>
<path d="M0 0 C2 0 4 0 6 0 C7.5 4.3 9 8.5 10.5 12.8 C10.9 14 11.4 15.2 11.8 16.5 C12.2 17.7 12.6 18.8 13 20 C13.4 21.1 13.8 22.2 14.2 23.3 C15 26 15 26 15 29 C15.7 29 16.3 29 17 29 C17.1 28.3 17.3 27.6 17.4 26.9 C18 23.9 18.9 21.1 19.8 18.3 C20.2 17.2 20.6 16.1 20.9 15 C21.3 13.9 21.7 12.8 22.1 11.7 C22.4 10.6 22.8 9.4 23.2 8.3 C24.1 5.5 25.1 2.8 26 0 C28.3 0 30.6 0 33 0 C29.6 9.7 26.2 19.5 22.6 29.1 C22.4 29.8 22.1 30.5 21.9 31.1 C21 33.5 20.1 35.8 19 38 C17 38 15 38 13 38 C11.5 33.9 9.9 29.7 8.4 25.6 C7.9 24.2 7.4 22.8 6.9 21.4 C1.5 7.1 1.5 7.1 0 0 Z " fill="#9297A3" transform="translate(1799,1010)"/>
</svg>
