<?xml version="1.0" encoding="UTF-8"?>
<!-- Generator: visioncortex VTracer 0.6.12 -->
<svg version="1.1" xmlns="http://www.w3.org/2000/svg" width="1920" height="1080">
<path d="M0 0 C633.6 0 1267.2 0 1920 0 C1920 356.4 1920 712.8 1920 1080 C1286.4 1080 652.8 1080 0 1080 C0 723.6 0 367.2 0 0 Z " fill="#4A597D" transform="translate(0,0)"/>
<path d="M0 0 C1 2.9 1.9 5.8 2.7 8.8 C2.9 9.7 3.2 10.7 3.4 11.7 C4.3 14.9 5.1 18.1 5.9 21.3 C6.5 23.6 7.1 25.9 7.7 28.1 C8.9 32.5 10 36.9 11.2 41.3 C13.7 50.7 16.1 60.1 18.6 69.5 C20 74.6 21.4 79.8 22.8 85 C23.9 89.3 25 93.5 26.2 97.8 C27.3 101.9 28.3 105.9 29.4 110 C29.8 111.5 30.2 113 30.6 114.6 C32.6 122 34.4 129.3 35 137 C21.9 140.4 8.8 143.7 -4.3 147.1 C-6.9 147.7 -9.5 148.4 -12 149 C-20 151.1 -28 153.1 -36 155.1 C-39.6 156 -43.2 156.9 -46.9 157.9 C-50.3 158.7 -53.8 159.6 -57.3 160.5 C-59.2 161 -61.1 161.5 -63 162 C-64.1 162.2 -65.3 162.5 -66.5 162.8 C-67 162.9 -67 162.9 -69.5 163.6 C-72 164 -72 164 -75 163 C-75.9 160.3 -76.6 157.6 -77.3 154.8 C-77.5 154 -77.7 153.1 -77.9 152.2 C-78.4 150.4 -78.8 148.5 -79.2 146.6 C-80.4 141.6 -81.6 136.7 -82.9 131.7 C-83.1 130.6 -83.4 129.6 -83.6 128.5 C-85.4 121.1 -87.4 113.8 -89.4 106.4 C-89.7 105.4 -90 104.4 -90.3 103.3 C-91.4 99.4 -92.5 95.5 -93.6 91.5 C-94.3 88.8 -95.1 86.1 -95.9 83.4 C-96.1 82.6 -96.3 81.8 -96.6 80.9 C-98.1 75.3 -98.1 75.3 -97 72 C-96 74.6 -95 77.3 -94 80 C-94.5 77.8 -94.9 75.6 -95.4 73.4 C-95.6 72.1 -95.9 70.9 -96.1 69.6 C-96.9 66.3 -97.9 63.2 -99 60 C-99.7 61 -100.3 62 -101 63 C-108.5 37.8 -108.5 37.8 -111 26 C-96.7 21.6 -82.2 18.1 -67.7 14.6 C-62.9 13.5 -58.1 12.3 -53.2 11.2 C-52.1 10.9 -50.9 10.6 -49.7 10.3 C-39.8 8 -29.9 5.5 -20 3 C-17.3 2.3 -14.7 1.7 -12 1 C-11.2 0.8 -10.3 0.6 -9.4 0.3 C-8.6 0.2 -7.8 -0 -7 -0.2 C-6.6 -0.3 -6.6 -0.3 -4.9 -0.8 C-3 -1 -3 -1 0 0 Z " fill="#6E708D" transform="translate(240,124)"/>
<path d="M0 0 C1.5 0 3.1 0 4.6 -0 C8.7 -0 12.9 0 17 0 C21.3 0 25.7 0 30 0 C38.2 0 46.4 0 54.6 0 C63.9 0.1 73.2 0.1 82.6 0.1 C101.7 0.1 120.9 0.1 140.1 0.1 C128.8 8.8 117.3 12.4 103.1 11.9 C88.7 11.8 78.4 22.2 68.1 31.1 C67.1 31.9 66.2 32.8 65.2 33.6 C57.6 40.2 50.3 46.9 46.1 56.1 C30.2 47.2 14.7 38 0.1 27.1 C-0.6 26.6 -1.3 26.1 -2 25.6 C-11.8 18.3 -21.3 10.8 -29.9 2.1 C-29.9 1.8 -29.9 1.5 -29.9 1.1 C-19.9 0.3 -10 -0 0 0 Z " fill="#232F59" transform="translate(332.90966796875,543.886474609375)"/>
<path d="M0 0 C0.5 -0 0.5 -0 2.8 -0 C3.3 -0 3.3 -0 5.8 0 C6.9 0 7.9 0 9 0 C12.5 0 16 0 19.5 0 C21.9 0 24.3 0 26.7 0 C33.1 0 39.5 0 45.9 0.1 C52.4 0.1 58.9 0.1 65.4 0.1 C78.1 0.1 90.9 0.1 103.7 0.1 C103.7 1.7 103.7 3.2 103.7 4.7 C103.7 5.6 103.7 6.5 103.8 7.3 C103.7 10.1 103.7 10.1 102.7 16.1 C66.7 16.1 30.7 16.1 -6.3 16.1 C-6.3 11.2 -6.3 6.2 -6.3 1.1 C-4 -0.1 -2.6 -0 0 0 Z " fill="#B8CECD" transform="translate(1439.3406066894531,441.87974548339844)"/>
<path d="M0 0 C19.6 1.2 35.8 13 48.5 27.2 C52.3 31.8 55.2 36.8 58 42 C58.5 42.8 59 43.6 59.4 44.5 C63.5 51.8 65.2 59.8 67 68 C64.3 69.4 62.6 68.8 59.6 68.4 C58.6 68.3 57.6 68.2 56.6 68.1 C55.4 67.9 54.1 67.7 52.9 67.6 C50.9 67.3 50.9 67.3 41 66 C42.3 56.8 43.6 47.5 45 38 C43.3 37.7 41.7 37.3 40 37 C38.1 36.2 36.3 35.4 34.4 34.6 C28.4 32 22.5 30.8 16 30 C15.9 29.3 15.8 28.5 15.7 27.7 C14.9 24.5 13.8 23.4 11.4 21.1 C10.7 20.4 10 19.8 9.3 19.1 C6.4 16.5 3.5 14 0.6 11.6 C-1.3 9.7 -1.7 8.6 -2 6 C-1.1 2.8 -1.1 2.8 0 0 Z " fill="#22345E" transform="translate(1053,73)"/>
<path d="M0 0 C3.9 0.3 7.8 0.6 11.6 0.9 C12.7 1 13.8 1.1 14.9 1.2 C16 1.3 17.1 1.4 18.2 1.5 C18.7 1.5 18.7 1.5 21.1 1.7 C24.1 2 27 2.5 30 3 C31.1 24.3 24.1 43.2 13 61 C12.6 61.6 12.3 62.1 11.9 62.7 C11 64.2 10 65.6 9 67 C8.3 67 7.7 67 7 67 C7 66.6 7 66.6 6.8 64.3 C5.2 49.5 1.6 35 -3.4 20.9 C-5.5 14 -3.1 6.3 0 0 Z " fill="#243F6D" transform="translate(1090,146)"/>
<path d="M0 0 C0.7 0 1.3 0 2 0 C2 30.6 2 61.1 2.1 91.7 C2.1 95.3 2.1 98.9 2.1 102.5 C2.1 102.8 2.1 102.8 2.1 104.7 C2.1 116.3 2.1 127.9 2.1 139.6 C2.1 151.5 2.1 163.4 2.1 175.3 C2.1 182 2.1 188.7 2.1 195.4 C2.1 201.7 2.1 208 2.1 214.4 C2.1 216.7 2.1 219 2.1 221.3 C2.1 224.5 2.1 227.6 2.1 230.8 C2.1 231.2 2.1 231.2 2.1 233.6 C2.1 239.9 2.1 239.9 1 241 C-0.6 241.1 -2.3 241.2 -3.9 241.2 C-5 241.2 -6.1 241.3 -7.2 241.3 C-8.3 241.3 -9.5 241.3 -10.8 241.3 C-12 241.4 -13.3 241.4 -14.6 241.4 C-18 241.5 -21.5 241.5 -25 241.6 C-27.2 241.6 -29.5 241.6 -31.7 241.7 C-68.8 242.2 -105.9 241.9 -143 241.6 C-152.3 241.6 -161.6 241.5 -170.9 241.4 C-189.9 241.3 -209 241.1 -228 241 C-228.3 240.3 -228.7 239.7 -229 239 C-153.4 239 -77.9 239 0 239 C0 160.1 0 81.3 0 0 Z " fill="#B6C0DB" transform="translate(542,303)"/>
<path d="M0 0 C0.9 12.6 -0.9 22.7 -9.3 32.5 C-16 39.3 -21.7 42.4 -31 44 C-33 39.7 -35 35.4 -37 31 C-35.8 30.1 -34.6 29.2 -33.4 28.3 C-22.5 19.8 -12.1 11.3 -2.5 1.4 C-1 0 -1 0 0 0 Z " fill="#2A3D67" transform="translate(1095,220)"/>
<path d="M0 0 C0.7 0 1.3 0 2 0 C2.9 13.8 3.1 27.5 3.1 41.2 C3.1 43.5 3.1 45.8 3.1 48.1 C3.1 54.2 3.1 60.3 3.1 66.5 C3.1 72.9 3.1 79.3 3.1 85.7 C3.1 96.5 3.1 107.3 3.1 118.1 C3.1 129.1 3.1 140.2 3.1 151.3 C3.1 152 3.1 152.7 3.1 153.4 C3.1 156.8 3.1 160.2 3.1 163.7 C3 192.1 3 220.6 3 249 C4.1 249 5.3 249 6.5 249 C17.2 249 28 249 38.7 248.9 C44.3 248.9 49.8 248.9 55.3 248.9 C60.7 248.9 66 248.9 71.3 248.9 C73.4 248.9 75.4 248.9 77.4 248.9 C80.3 248.9 83.1 248.9 86 248.9 C86.8 248.9 87.7 248.9 88.5 248.9 C92.5 248.9 96.1 249.2 100 250 C101 249.7 102 249.3 103 249 C103.3 250 103.7 251 104 252 C70 251.7 36 251.3 1 251 C0.7 168.2 0.3 85.3 0 0 Z " fill="#B0B0CF" transform="translate(187,293)"/>
<path d="M0 0 C4 2.1 6.5 4.1 8 8.3 C8.7 13.1 8.7 17.7 6.5 22.2 C3.4 26 0.9 27.4 -4 28.3 C-8.9 28.7 -12.1 27.5 -15.9 24.4 C-18.6 21.9 -19.8 20 -20.2 16.2 C-20.3 11.2 -20 7.5 -17 3.3 C-11.6 -0.7 -6.5 -2.4 0 0 Z " fill="#7B83AC" transform="translate(1883.95703125,1020.73046875)"/>
<path d="M0 0 C4.3 0.2 4.3 0.2 26 1 C24 10 24 10 22.9 12.4 C21.5 16.5 21.3 20.7 21 25 C19.7 25.3 18.4 25.7 17 26 C18 26.3 19 26.7 20 27 C20 28.3 20 29.6 20 31 C18.9 31 17.7 30.9 16.6 30.9 C15.1 30.9 13.6 30.8 12.1 30.8 C11.4 30.8 10.6 30.8 9.9 30.7 C7.7 30.7 7.7 30.7 4 31 C3.7 31.5 3.7 31.5 2 34 C0.3 33.7 -1.3 33.3 -3 33 C-2.7 31.4 -2.3 29.7 -2 28 C-5 27.7 -7.9 27.3 -11 27 C-11 25.7 -11 24.4 -11 23 C-6.1 23 -1.1 23 4 23 C4 21.4 4 19.7 4 18 C5.3 17.8 5.3 17.8 12 17 C12 16.7 12 16.3 12 16 C6.7 15.7 1.4 15.3 -4 15 C-4 14 -4 13 -4 12 C-3.4 12 -2.8 12 -2.2 12 C-1.4 12 -0.6 12.1 0.2 12.1 C1 12.1 1.8 12.1 2.6 12.1 C5 12 5 12 9 11 C4.7 10.7 0.4 10.3 -4 10 C-4 9 -4 8 -4 7 C-1.4 6.8 -1.4 6.8 12 6 C12 5.3 12 4.7 12 4 C8 4 4.1 4 0 4 C0 2.7 0 1.4 0 0 Z " fill="#99ABC2" transform="translate(221,388)"/>
<path d="M0 0 C10.2 -0.1 20.3 0 30.4 0.4 C31.4 0.5 32.4 0.5 33.5 0.6 C34.4 0.6 35.3 0.6 36.3 0.7 C37.1 0.7 38 0.8 38.8 0.8 C41 1 41 1 44 2 C44.5 6.8 42.8 9.7 40.5 13.8 C40.2 14.4 39.8 15 39.5 15.6 C38.7 17.1 37.8 18.5 37 20 C34 20 31.1 20 28 20 C27.7 20.7 27.3 21.3 27 22 C20.4 22 13.8 22 7 22 C7 21 7 20 7 19 C12.3 19 17.6 19 23 19 C23 18.3 23 17.7 23 17 C21.8 16.9 20.7 16.9 19.5 16.8 C18 16.7 16.4 16.6 14.9 16.6 C14.5 16.5 14.5 16.5 12.6 16.4 C8.3 16.2 4.2 15.8 0 15 C0 14 0 13 0 12 C3.4 11.9 6.8 11.9 10.2 11.9 C11.2 11.9 12.2 11.8 13.2 11.8 C14.1 11.8 15.1 11.8 16 11.8 C16.9 11.8 17.7 11.8 18.6 11.8 C21.2 12 22.8 12.7 25 14 C25 12.4 25 10.7 25 9 C24.6 9 24.6 9 22.7 9 C19.4 9 16 9 12.6 9.1 C12 9.1 12 9.1 9.1 9.1 C8.5 9.1 8.5 9.1 5.7 9.1 C5.1 9.1 5.1 9.1 2.5 9.1 C0 9 0 9 -2 8 C-2 7.3 -2 6.7 -2 6 C-1.2 6 -0.4 6 0.4 6 C3.9 6 7.4 6 10.9 6.1 C12.1 6.1 13.3 6.1 14.6 6.1 C15.7 6.1 16.9 6.1 18.1 6.1 C19.2 6.1 20.3 6.1 21.4 6.1 C24 6 24 6 26 5 C17.4 4.3 8.8 3.7 0 3 C0 2 0 1 0 0 Z " fill="#9DAEC9" transform="translate(215,358)"/>
<path d="M0 0 C0.6 0.1 1.1 0.1 1.7 0.2 C9.2 1.1 16.7 1.1 24.3 1.1 C25.7 1.1 27 1.1 28.4 1.1 C31.9 1.1 35.4 1.1 39 1.1 C42.6 1.1 46.2 1.1 49.8 1 C56.9 1 63.9 1 71 1 C71 2 71 3 71 4 C52.5 4.3 34 4.7 15 5 C14.7 5.7 14.3 6.3 14 7 C16.6 7 19.3 7 22 7 C21.7 8 21.3 9 21 10 C21.9 10 22.8 10 23.8 10.1 C27.2 10.1 30.6 10.2 34 10.3 C35.5 10.4 37 10.4 38.5 10.4 C40.6 10.5 42.7 10.5 44.8 10.6 C46.1 10.6 47.4 10.6 48.7 10.7 C51.7 11 53.5 11.4 56 13 C55 13.3 54 13.7 53 14 C52.7 14.7 52.3 15.3 52 16 C49.9 16.6 49.9 16.6 48 17 C47.8 16.5 47.8 16.5 47 14 C43 13.7 39.1 13.3 35 13 C34.7 14.3 34.3 15.6 34 17 C31.1 17.2 28.3 17.3 25.4 17.5 C24.6 17.5 23.8 17.6 23 17.6 C18.3 17.9 13.7 18.1 9 18 C8.3 15.7 7.7 13.4 7 11 C5 11.3 3 11.7 1 12 C1.2 11.4 1.5 10.9 1.7 10.3 C2.1 7.1 0.7 5.7 -1 3 C-0.7 2 -0.3 1 0 0 Z " fill="#ADBCD4" transform="translate(1219,297)"/>
<path d="M0 0 C7.3 0 14.5 0 22 0 C22 1.3 22 2.6 22 4 C34.5 4.3 47.1 4.7 60 5 C60 5.7 60 6.3 60 7 C41.3 7.6 22.7 8.2 4 8 C4 8.7 4 9.3 4 10 C8.6 10 13.2 10 18 10 C18 11 18 12 18 13 C19.3 13.3 20.6 13.7 22 14 C22 15 22 16 22 17 C21.3 17.3 20.7 17.7 20 18 C19.7 19 19.3 20 19 21 C18.4 20.9 17.7 20.8 17.1 20.7 C16.2 20.6 15.4 20.5 14.6 20.4 C13.7 20.3 12.9 20.2 12.1 20.1 C11.4 20.1 10.7 20 10 20 C9.7 20.3 9.3 20.7 9 21 C6.7 21 4.3 21 2 21 C2 20 2 19 2 18 C0.7 17.3 -0.6 16.7 -2 16 C-2 15 -2 14 -2 13 C-3 12.7 -4 12.3 -5 12 C-4 11 -3 10 -2 9 C-4.3 9 -6.6 9 -9 9 C-9 8 -9 7 -9 6 C-5.7 5.7 -2.4 5.3 1 5 C1.3 4 1.7 3 2 2 C1.3 2 0.7 2 0 2 C0 1.3 0 0.7 0 0 Z " fill="#A9B9D0" transform="translate(1228,277)"/>
<path d="M0 0 C75.6 0 151.1 0 229 0 C229.3 0.7 229.7 1.3 230 2 C182 3 134 3 86 2.6 C76.7 2.6 67.4 2.5 58.1 2.4 C39.1 2.3 20 2.1 1 2 C0.7 1.3 0.3 0.7 0 0 Z " fill="#9DA3CA" transform="translate(313,542)"/>
<path d="M0 0 C5.3 0 10.6 0 16 0 C15.7 1.3 15.3 2.6 15 4 C18 5 20.2 5.2 23.3 5.3 C24.4 5.4 25.5 5.4 26.6 5.4 C27.7 5.5 28.9 5.5 30.1 5.6 C30.6 5.6 30.6 5.6 33.6 5.7 C43.1 6 52.5 6.1 62 6 C62.2 6.5 62.2 6.5 63 9 C51.1 9.3 39.2 9.7 27 10 C32.6 10.3 38.2 10.7 44 11 C44 12 44 13 44 14 C36.7 14.3 29.5 14.7 22 15 C21.7 16.6 21.3 18.3 21 20 C15.4 20 9.8 20 4 20 C4.3 19 4.7 18 5 17 C9.6 17 14.2 17 19 17 C19 16 19 15 19 14 C16.4 14 13.7 14 11 14 C11 13.3 11 12.7 11 12 C13.6 10.7 15.7 10.9 18.6 10.9 C19.1 10.9 19.1 10.9 21.7 11 C22.4 11 23.2 11 24 11 C24 10.3 24 9.7 24 9 C15.4 9.3 6.8 9.7 -2 10 C-2.3 8 -2.7 6 -3 4 C-2.3 3.7 -1.7 3.3 -1 3 C-0.7 2 -0.3 1 0 0 Z " fill="#B4C2D9" transform="translate(257,469)"/>
<path d="M0 0 C12.2 0 24.4 0 37 0 C37 0.3 37 0.7 37 1 C34.7 1 32.4 1 30 1 C30 1.7 30 2.3 30 3 C32.6 3 35.3 3 38 3 C38 5 38 7 38 9 C37.5 9 37.5 9 34.7 9.2 C33.2 9.3 31.8 9.4 30.3 9.4 C29.6 9.5 28.9 9.5 28.1 9.6 C24.3 9.8 20.7 10.1 17 11 C17.3 12 17.7 13 18 14 C12.1 14 6.1 14 0 14 C-0.3 11 -0.7 8.1 -1 5 C-0.3 4.7 0.3 4.3 1 4 C0.7 2.7 0.3 1.4 0 0 Z " fill="#8EA0BB" transform="translate(1504,313)"/>
</svg>
